<?xml version="1.0" encoding="UTF-8" standalone="no"?>
<svg
   xmlns:dc="http://purl.org/dc/elements/1.1/"
   xmlns:cc="http://creativecommons.org/ns#"
   xmlns:rdf="http://www.w3.org/1999/02/22-rdf-syntax-ns#"
   xmlns:svg="http://www.w3.org/2000/svg"
   xmlns="http://www.w3.org/2000/svg"
   id="svg12"
   version="1.1"
   width="55"
   viewBox="0 0 55 55"
   height="55">
  <metadata
     id="metadata18">
    <rdf:RDF>
      <cc:Work
         rdf:about="">
        <dc:format>image/svg+xml</dc:format>
        <dc:type
           rdf:resource="http://purl.org/dc/dcmitype/StillImage" />
        <dc:title></dc:title>
      </cc:Work>
    </rdf:RDF>
  </metadata>
  <defs
     id="defs16" />
  <rect
     style="fill:#282828;fill-opacity:1;stroke:none;stroke-width:2.23607516;stroke-linecap:round;stroke-linejoin:miter;stroke-miterlimit:4;stroke-dasharray:none;stroke-opacity:1"
     id="rect2986"
     y="6.0978026"
     x="6.7974424"
     height="42.763924"
     width="42.763924" />
  <g
     id="layer2" />
  <g
     id="layer3">
    <g
       style="fill:#ffffff;fill-opacity:1;stroke:#fffffa;stroke-width:1.5;stroke-opacity:1"
       id="g10"
       transform="matrix(0.46522973,0,0,0.46522973,4.8583845,4.0480103)">
      <path
         style="fill:#ffffff;fill-opacity:1;stroke:#fffffa;stroke-opacity:1"
         id="path2"
         d="m 86.2,50 v 0 0 C 86.2,40.3 82.4,31.2 75.5,24.3 68.7,17.5 59.6,13.8 50,13.8 h -0.1 c -9.7,0 -18.8,3.8 -25.7,10.7 -0.4,0.4 -0.8,0.8 -1.1,1.2 v 0 C 17,32.4 13.7,41 13.7,50.1 c 0,9.2 3.5,17.7 9.2,24.1 v 0 c 0.1,0.2 0.3,0.4 0.6,0.6 6.6,7.1 16,11.5 26.5,11.5 v 0 0 0 0 0 0 c 5.5,0 10.9,-1.2 15.8,-3.6 1,-0.5 1.4,-1.7 0.9,-2.7 -0.5,-1 -1.7,-1.4 -2.7,-0.9 -3.3,1.6 -6.8,2.6 -10.4,3 l 2.9,-4.8 c 4.7,-7.8 7.3,-16.5 7.6,-25.2 h 18 l -0.3,3.3 c -0.2,1.1 -0.4,2.1 -0.7,3.2 -0.3,1.1 0.3,2.2 1.4,2.5 1.1,0.3 2.2,-0.3 2.5,-1.4 0.3,-1.2 0.6,-2.4 0.8,-3.6 C 86.1,54 86.2,52 86.2,50 Z M 46.9,75.1 c -1.3,-2.1 -2.3,-4.2 -3.3,-6.5 4.3,-0.6 8.6,-0.6 12.7,0 -0.9,2.2 -2,4.4 -3.3,6.5 l -3,5.2 z m -3.4,2.1 2.9,4.8 c -7,-0.8 -13.4,-3.9 -18.3,-8.5 3.6,-1.9 7.6,-3.2 11.5,-4.1 1.1,2.7 2.4,5.3 3.9,7.8 z M 25.2,70.5 C 21,65.4 18.3,59 17.8,52 h 18.1 c 0.2,4.6 1,9.2 2.4,13.6 -4.6,1.1 -9,2.7 -13.1,4.9 z m -0.1,-41 c 4.2,2.2 8.6,3.9 13.1,4.9 -1.4,4.5 -2.2,9.1 -2.4,13.7 h -18 c 0.4,-6.9 3,-13.4 7.3,-18.6 z m 24.9,-9.8 3.1,5.2 c 1.3,2.1 2.3,4.2 3.3,6.4 -4.2,0.5 -8.5,0.5 -12.7,0 0.9,-2.2 2,-4.4 3.3,-6.4 z m 6.5,3.1 -2.9,-4.8 c 6.9,0.8 13.3,3.7 18.4,8.5 -3.7,1.9 -7.6,3.3 -11.6,4.1 -1.1,-2.7 -2.4,-5.3 -3.9,-7.8 z m -13,0 C 42,25.3 40.7,27.9 39.6,30.6 35.6,29.7 31.7,28.4 28,26.5 33.1,21.7 39.5,18.8 46.4,18 Z m -1.3,12.3 c 2.6,0.4 5.2,0.6 7.8,0.6 2.6,0 5.2,-0.2 7.7,-0.6 1.4,4.2 2.1,8.5 2.3,12.9 H 39.9 c 0.2,-4.3 1,-8.7 2.3,-12.9 z m 19.5,-0.7 c 4.5,-1 8.9,-2.7 13.1,-4.9 4.4,5.3 6.9,11.7 7.3,18.5 h -18 c -0.2,-4.6 -1,-9.2 -2.4,-13.6 z M 57.8,64.8 C 52.8,64 47.5,64 42.3,64.8 40.9,60.6 40.2,56.3 40,52 h 20.1 c -0.2,4.3 -1,8.7 -2.3,12.8 z" />
      <g
         style="fill:#ffffff;fill-opacity:1;stroke:#fffffa;stroke-opacity:1"
         id="g8"
         transform="translate(-0.125,0.125)">
        <path
           style="fill:#ffffff;fill-opacity:1;stroke:#fffffa;stroke-opacity:1"
           id="path4"
           d="M 67.8,66.2 H 78 l -1.6,-1.6 c -0.4,-0.4 -0.6,-0.9 -0.6,-1.4 0,-0.5 0.2,-1 0.6,-1.4 0.8,-0.8 2,-0.8 2.8,0 l 5,5 v 0 0 0 0 0 0 c 0.3,0.4 0.5,0.8 0.6,1.3 v 0.4 c 0,0.4 -0.2,0.7 -0.5,1 l -0.2,0.2 c -0.4,0.3 -0.8,0.5 -1.2,0.5 v 0 h -0.1 -15 c -1.1,0 -2,-0.9 -2,-2 0,-1.1 0.9,-2 2,-2 z" />
        <path
           style="fill:#ffffff;fill-opacity:1;stroke:#fffffa;stroke-opacity:1"
           id="path6"
           d="m 84.7,74.239601 c 0,1.1 -0.9,2 -2,2 H 72.6 l 1.6,1.6 c 0.4,0.4 0.6,0.9 0.6,1.4 0,0.5 -0.2,1 -0.6,1.4 -0.4,0.4 -0.9,0.6 -1.4,0.6 -0.5,0 -1,-0.2 -1.4,-0.6 l -5,-5 v 0 0 0 0 0 0 c -0.3,-0.4 -0.5,-0.8 -0.6,-1.3 v -0.4 c 0,-0.4 0.2,-0.7 0.5,-1 l 0.2,-0.2 c 0.4,-0.3 0.8,-0.5 1.2,-0.5 v 0 h 0.1 15 c 1,0 1.9,0.9 1.9,2 z" />
      </g>
    </g>
  </g>
</svg>
